<svg width="242" height="242" viewBox="0 0 242 242" fill="none" xmlns="http://www.w3.org/2000/svg">
<rect width="242" height="242" rx="20" fill="#07204F"/>
<path d="M15 97.9954L59.8808 30L86 111L15 97.9954Z" fill="#FF0202"/>
<path d="M88.8987 119.103L100 153.544L85.1982 179L16 106L88.8987 119.103Z" fill="#FF4E02"/>
<path d="M105.148 145L117 124.273L97 121L105.148 145Z" fill="#FF8B02"/>
<path d="M90 184.219L102.692 163L120 214L90 184.219Z" fill="#FF8B02"/>
<path d="M108 154.773L125.717 209L194 138.173L124.609 126L108 154.773Z" fill="#FFB802"/>
<path d="M180.111 29L129 118.018L201.222 131L229 102.069L180.111 29Z" fill="#FF8B02"/>
<path d="M174 26H67L94.5889 112.152L121.432 117L174 26Z" fill="#FF4E02"/>
</svg>
