<svg width="411" height="102" viewBox="0 0 411 102" fill="none" xmlns="http://www.w3.org/2000/svg">
<path d="M411 101.5H0V67C6.10267 34.782 127.544 26.4479 158.833 24.8318C162.827 24.6254 166.087 27.8496 166.031 31.8492L166 34C166 56.0914 183.409 74 205.5 74C227.591 74 245 56.0914 245 34L244.833 32.6056C244.324 28.3444 247.657 24.6449 251.943 24.8683C284.598 26.5712 405.375 35.0179 411 67V101.5Z" fill="#07204F"/>
<path d="M240 34.5C240 53.5538 224.554 69 205.5 69C186.446 69 171 53.5538 171 34.5C171 15.4462 186.446 0 205.5 0C224.554 0 240 15.4462 240 34.5Z" fill="url(#paint0_radial)"/>
<defs>
<radialGradient id="paint0_radial" cx="0" cy="0" r="1" gradientUnits="userSpaceOnUse" gradientTransform="translate(240 56) rotate(-145.074) scale(70.7407)">
<stop offset="0.03125" stop-color="#FFB802"/>
<stop offset="0.302083" stop-color="#FF8B02"/>
<stop offset="0.625" stop-color="#FF4E02"/>
<stop offset="1" stop-color="#FF0202"/>
</radialGradient>
</defs>
</svg>
