<svg width="25" height="25" viewBox="0 0 25 25" fill="none" xmlns="http://www.w3.org/2000/svg">
<path d="M25 12.5C25 19.4036 19.4036 25 12.5 25C5.59644 25 0 19.4036 0 12.5C0 5.59644 5.59644 0 12.5 0C19.4036 0 25 5.59644 25 12.5Z" fill="url(#paint0_radial)"/>
<path d="M18.794 8.878C19.102 8.878 19.3513 8.95133 19.542 9.098C19.7327 9.24467 19.806 9.48667 19.762 9.824C19.7473 10.1027 19.6153 10.3227 19.366 10.484C19.1167 10.6453 18.8307 10.726 18.508 10.726H17.034L16.506 13.85H17.914C18.2513 13.85 18.5007 13.9307 18.662 14.092C18.838 14.2533 18.926 14.466 18.926 14.73C18.926 14.9647 18.8087 15.1847 18.574 15.39C18.3393 15.5953 18.024 15.698 17.628 15.698H16.044L15.318 19.9C15.2593 20.2227 15.1273 20.4867 14.922 20.692C14.7313 20.8973 14.4673 21 14.13 21C13.8073 21 13.5653 20.8827 13.404 20.648C13.2573 20.4133 13.2133 20.1347 13.272 19.812L13.954 15.698H10.566L9.862 19.9C9.80333 20.208 9.664 20.472 9.444 20.692C9.23867 20.8973 8.982 21 8.674 21C8.35133 21 8.10933 20.9047 7.948 20.714C7.78667 20.5087 7.73533 20.208 7.794 19.812L8.498 15.698H6.98C6.672 15.698 6.42267 15.6247 6.232 15.478C6.056 15.3167 5.97533 15.1113 5.99 14.862C6.04867 14.1873 6.474 13.85 7.266 13.85H8.96L9.466 10.726H7.838C7.54467 10.726 7.30267 10.66 7.112 10.528C6.92133 10.396 6.826 10.1907 6.826 9.912C6.826 9.56 6.94333 9.30333 7.178 9.142C7.41267 8.966 7.728 8.878 8.124 8.878H9.906L10.632 4.896C10.7053 4.55867 10.8373 4.29467 11.028 4.104C11.2187 3.89867 11.4827 3.796 11.82 3.796C12.1427 3.796 12.3847 3.906 12.546 4.126C12.722 4.346 12.7733 4.632 12.7 4.984L11.996 8.878H15.384L16.11 4.896C16.1687 4.588 16.3007 4.33133 16.506 4.126C16.7113 3.906 16.9753 3.796 17.298 3.796C17.6353 3.796 17.8773 3.906 18.024 4.126C18.1853 4.346 18.2293 4.632 18.156 4.984L17.474 8.878H18.794ZM14.416 13.85L14.944 10.726H11.556L11.05 13.85H14.416Z" fill="white"/>
<defs>
<radialGradient id="paint0_radial" cx="0" cy="0" r="1" gradientUnits="userSpaceOnUse" gradientTransform="translate(25 20.2899) rotate(-145.074) scale(25.6307)">
<stop offset="0.03125" stop-color="#FFB802"/>
<stop offset="0.302083" stop-color="#FF8B02"/>
<stop offset="0.625" stop-color="#FF4E02"/>
<stop offset="1" stop-color="#FF0202"/>
</radialGradient>
</defs>
</svg>
