<svg width="42" height="41" viewBox="0 0 42 41" fill="none" xmlns="http://www.w3.org/2000/svg">
<g filter="url(#filter0_i)">
<path d="M19.3599 0C11.1283 0 3.99908 5.09915 0.531296 12.533C-0.163085 14.0216 -0.274455 16.1452 1.09806 16.9068C2.6806 17.7849 4.18668 15.7887 5.05721 14.1126C7.86339 8.7096 13.217 5.0585 19.3599 5.0585C24.405 5.0585 28.9176 7.52114 31.924 11.3944L27.0861 16.9068H40.8994L39.4358 2.49774L34.8123 7.34759C30.9473 2.43812 25.7933 0 19.3599 0Z" fill="white"/>
<path d="M21.7001 41C29.9318 41 37.061 35.9009 40.5288 28.467C41.2231 26.9784 41.3345 24.8548 39.962 24.0932C38.3795 23.2151 36.8734 25.2113 36.0028 26.8874C33.1967 32.2904 27.8431 35.9415 21.7001 35.9415C16.6551 35.9415 12.1424 33.4789 9.13608 29.6056L13.9739 24.0932H0.160618L1.62422 38.5023L6.24777 33.6524C10.1128 38.5619 15.2668 41 21.7001 41Z" fill="white"/>
</g>
<defs>
<filter id="filter0_i" x="0.0300293" y="0" width="43" height="45" filterUnits="userSpaceOnUse" color-interpolation-filters="sRGB">
<feFlood flood-opacity="0" result="BackgroundImageFix"/>
<feBlend mode="normal" in="SourceGraphic" in2="BackgroundImageFix" result="shape"/>
<feColorMatrix in="SourceAlpha" type="matrix" values="0 0 0 0 0 0 0 0 0 0 0 0 0 0 0 0 0 0 127 0" result="hardAlpha"/>
<feOffset dx="2" dy="4"/>
<feGaussianBlur stdDeviation="2"/>
<feComposite in2="hardAlpha" operator="arithmetic" k2="-1" k3="1"/>
<feColorMatrix type="matrix" values="0 0 0 0 0 0 0 0 0 0 0 0 0 0 0 0 0 0 0.25 0"/>
<feBlend mode="normal" in2="shape" result="effect1_innerShadow"/>
</filter>
</defs>
</svg>
